<svg xmlns="http://www.w3.org/2000/svg" viewBox="0 0 1080 1080"><defs><style>.a,.c,.d{fill:#51c89e;}.a{stroke:#51c89e;stroke-width:17px;}.a,.b,.c,.e{stroke-miterlimit:10;}.b{fill:#fff;}.b,.c,.e{stroke:#02617f;stroke-width:30px;}.e{fill:none;}</style></defs><title>logo-field</title><polygon class="a" points="837.6 1012 136 1012 136 144.8 590 144.8 837.6 313.8 837.6 1012"/><polygon class="b" points="881.9 951 193.4 951 193.4 100.1 731.5 100.1 881.9 249.6 881.9 951"/><circle class="b" cx="780.8" cy="636.2" r="225.2"/><path class="c" d="M780.8,391c-135.4,0-245.1,109.7-245.1,245.2S645.4,881.3,780.8,881.3,1026,771.6,1026,636.2,916.2,391,780.8,391Zm0,421.5c-97.4,0-176.3-79-176.3-176.3s78.9-176.4,176.3-176.4,176.4,79,176.4,176.4S878.2,812.5,780.8,812.5Z"/><polygon class="d" points="688 724.9 755 613.2 865.9 547 798.1 656.3 688 724.9"/><polyline class="e" points="881 251.9 728.6 251.9 728.6 99.6"/></svg>