<svg xmlns="http://www.w3.org/2000/svg" viewBox="0 0 1080 1080"><defs><style>.a{fill:#fff;stroke:#02617f;stroke-miterlimit:10;stroke-width:30px;}.b{fill:#51c89e;}</style></defs><title>logo-clouds</title><path class="a" d="M464.6,201.4c181.5,0,328.6,147.1,328.6,328.6S646.1,858.6,464.6,858.6"/><path class="b" d="M1011,491.5c0,41.3-30.8,75.3-70.1,77.5l-1.5.3H631c-46.5,0-84.3-39.7-84.3-88.4s37.8-88.4,84.3-88.4a71.9,71.9,0,0,1,12.4,1.1,8.1,8.1,0,0,0,8.9-6.1c7.7-29,33-49.3,61.7-49.3a61.6,61.6,0,0,1,38.9,13.9,7.9,7.9,0,0,0,7.1,1.4,8.3,8.3,0,0,0,5.3-5.2c12-34.9,43.9-58.3,79.2-58.3,46.5,0,49,45.7,49,94.4,0,8.3,34.2,10.6,31.9,18.8a8.4,8.4,0,0,0,1.4,7.5,7.6,7.6,0,0,0,6.7,3.2h3.3C977.7,413.7,1011,448.6,1011,491.5Z"/><path class="b" d="M489.1,256.4a57.4,57.4,0,0,1-54.3,57.2l-1.5.2H175.9a65.9,65.9,0,0,1,0-131.8,72.8,72.8,0,0,1,9.7.8,11.2,11.2,0,0,0,12.6-8.2,49,49,0,0,1,47.1-35.9A47.9,47.9,0,0,1,275,148.9a11.7,11.7,0,0,0,10.1,1.8,11.2,11.2,0,0,0,7.4-7,65.9,65.9,0,0,1,127.8,22.4,65.2,65.2,0,0,1-2.7,18.5,11.4,11.4,0,0,0,2,10.2,10.9,10.9,0,0,0,9.4,4.3h2.6A57.5,57.5,0,0,1,489.1,256.4Z"/><path class="a" d="M489.1,212.7a57.3,57.3,0,0,1-54.3,57.2l-1.5.2H175.9a65.9,65.9,0,1,1,0-131.7,59.2,59.2,0,0,1,9.7.8,11.3,11.3,0,0,0,12.6-8.2A48.8,48.8,0,0,1,275,105.2a11.3,11.3,0,0,0,17.5-5.1A65.8,65.8,0,0,1,417.6,141a11.2,11.2,0,0,0,2,10.1,10.9,10.9,0,0,0,9.4,4.3h2.6A57.6,57.6,0,0,1,489.1,212.7Z"/><path class="a" d="M998.3,444.7a71.5,71.5,0,0,1-67.7,71.4l-1.7.3H618.2a81.9,81.9,0,1,1,0-163.7,78.4,78.4,0,0,1,12,1,11.5,11.5,0,0,0,12.6-8.2,61.4,61.4,0,0,1,59.1-45,60.7,60.7,0,0,1,37.2,12.7,11.3,11.3,0,0,0,17.6-5.2,81.8,81.8,0,0,1,158.7,27.8,79.3,79.3,0,0,1-3.4,23.1,11.2,11.2,0,0,0,2,10.1,10.9,10.9,0,0,0,9.4,4.3h3.3A71.6,71.6,0,0,1,998.3,444.7Z"/><path class="b" d="M695.7,921.9a93.5,93.5,0,0,1-88.6,93.3l-1.8.3H215.9a106.5,106.5,0,0,1,0-212.9,104.5,104.5,0,0,1,15.7,1.3,10,10,0,0,0,11.2-7.3,81,81,0,0,1,77.9-59.4A79.9,79.9,0,0,1,369.8,754a10,10,0,0,0,9,1.6,10.3,10.3,0,0,0,6.7-6.2,106.6,106.6,0,0,1,99.9-70.3c58.7,0,61.9,55.1,61.9,113.8,0,10,43.1,12.7,40.2,22.6a10.3,10.3,0,0,0,1.8,9.1,9.9,9.9,0,0,0,8.5,3.8H602A93.8,93.8,0,0,1,695.7,921.9Z"/><path class="a" d="M696.7,857.3a93.6,93.6,0,0,1-88.5,93.4,4.8,4.8,0,0,0-1.8.3H217a106.5,106.5,0,1,1,0-212.9,102.2,102.2,0,0,1,15.6,1.3,10.1,10.1,0,0,0,11.3-7.4,80.9,80.9,0,0,1,77.8-59.3,80,80,0,0,1,49.1,16.7,10.1,10.1,0,0,0,15.7-4.6A106.4,106.4,0,0,1,588.6,751a10,10,0,0,0,1.8,9.1,9.9,9.9,0,0,0,8.4,3.8h4.3A93.7,93.7,0,0,1,696.7,857.3Z"/></svg>