<svg xmlns="http://www.w3.org/2000/svg" viewBox="0 0 540 180"><defs><style>.a{fill:#074f60;}.b{fill:#00a99d;}.c{fill:#b3b3b3;}.d{fill:#51c89e;}</style></defs><title>logo-Artboard 1</title><path class="a" d="M242,68.6c5.3,4.8,8,12.1,8,21.9v40.3H234.8v-8.4a19.2,19.2,0,0,1-8.4,6.9,32.4,32.4,0,0,1-13.2,2.4,31.9,31.9,0,0,1-13.5-2.7,20.3,20.3,0,0,1-8.9-7.3,18.6,18.6,0,0,1-3.2-10.6,18.3,18.3,0,0,1,6.9-14.9c4.6-3.7,11.8-5.6,21.7-5.6h17.7v-1c0-4.8-1.4-8.5-4.3-11.1s-7.1-3.8-12.8-3.8a37.7,37.7,0,0,0-11.4,1.8,28,28,0,0,0-9.4,5l-6.3-11.7a40.4,40.4,0,0,1,13-6.3,55.7,55.7,0,0,1,16-2.2C228.9,61.3,236.6,63.7,242,68.6Zm-14.7,48.6a15.1,15.1,0,0,0,6.6-7.9v-8H217.3c-9.2,0-13.9,3.1-13.9,9.1a8.2,8.2,0,0,0,3.5,7c2.3,1.7,5.5,2.6,9.7,2.6A21.1,21.1,0,0,0,227.3,117.2Z"/><path class="a" d="M297.3,101.3l-11.9,11.3v18.2H269.3v-70h16.1V93l33.3-30.9H338L309.3,90.9l31.4,39.9H321.1Z"/><path class="a" d="M411.3,101.6H357.4a19.1,19.1,0,0,0,7.4,12c4,3,9,4.4,14.9,4.4,7.5,0,13.7-2.4,18.6-7.4l8.6,9.9a26.9,26.9,0,0,1-11.7,8.3,42.1,42.1,0,0,1-15.9,2.9,42.7,42.7,0,0,1-20-4.5A33,33,0,0,1,346,114.6a35.5,35.5,0,0,1-4.7-18.2,36,36,0,0,1,4.6-18,32.1,32.1,0,0,1,12.7-12.6,39,39,0,0,1,36.2-.1,31.5,31.5,0,0,1,12.3,12.5,37.7,37.7,0,0,1,4.5,18.6Q411.6,98.5,411.3,101.6ZM363.8,78.7a19.3,19.3,0,0,0-6.5,12.2h39A19.1,19.1,0,0,0,390,78.8a21.1,21.1,0,0,0-26.2-.1Z"/><path class="a" d="M478.7,117.9v12.9H419.4V120.6l37.7-45.7H420.2V62.1h57.5V72.2l-37.8,45.7Z"/><path class="b" d="M493.2,73.5a9.2,9.2,0,0,1-3-6.9,8.9,8.9,0,0,1,3-6.9,10.5,10.5,0,0,1,7.3-2.8,10.7,10.7,0,0,1,7.4,2.7,8.5,8.5,0,0,1,2.9,6.6,9.4,9.4,0,0,1-2.9,7.1,9.7,9.7,0,0,1-7.4,2.9A10.5,10.5,0,0,1,493.2,73.5Z"/><rect class="a" x="492.2" y="87.5" width="16.1" height="43.22"/><path class="c" d="M135.6,119.4a9.2,9.2,0,0,1-7.8,10.7,9.4,9.4,0,1,1,7.8-10.7Z"/><path class="c" d="M126.4,132.5a11.7,11.7,0,0,1-1.9-23.2,11.8,11.8,0,0,1,13.4,9.7,11.7,11.7,0,0,1-9.7,13.4Zm0-18.7h-1.1a7.2,7.2,0,0,0-5.9,8.1,7,7,0,0,0,8.1,5.9,7.1,7.1,0,0,0,5.9-8.1,7,7,0,0,0-2.9-4.6A6.7,6.7,0,0,0,126.4,113.8Z"/><path class="b" d="M51.2,112a9.2,9.2,0,0,1-7.8,10.7A9.4,9.4,0,1,1,51.2,112Z"/><path class="b" d="M42,125.1a11.4,11.4,0,0,1-6.9-2.2,11.6,11.6,0,0,1-4.7-7.6,11.7,11.7,0,0,1,23.1-3.7h0A11.7,11.7,0,0,1,43.8,125Zm0-18.7H40.9a7,7,0,0,0-5.9,8.1,7.2,7.2,0,0,0,2.8,4.6A7.1,7.1,0,1,0,42,106.4Z"/><path class="c" d="M119.3,63a9.4,9.4,0,1,1-18.5,2.9A9.4,9.4,0,0,1,119.3,63Z"/><path class="c" d="M110,76.1a11.7,11.7,0,0,1-11.5-9.8A11.7,11.7,0,0,1,116.9,55a11.6,11.6,0,0,1,4.7,7.6A11.7,11.7,0,0,1,111.9,76Zm0-18.8h-1.1a6.7,6.7,0,0,0-4.6,2.9,7,7,0,0,0-1.3,5.2,7.1,7.1,0,0,0,14-2.2,7,7,0,0,0-2.8-4.6A7.1,7.1,0,0,0,110,57.3Z"/><path class="b" d="M153.5,37.1a9.4,9.4,0,0,1-18.5,3,9.4,9.4,0,1,1,18.5-3Z"/><path class="b" d="M144.3,50.3a11.7,11.7,0,0,1-11.6-9.9A11.9,11.9,0,0,1,142.4,27a12.1,12.1,0,0,1,8.7,2.1,11.7,11.7,0,0,1-5,21Zm0-18.8h-1.1a7,7,0,0,0-5.9,8.1,7.1,7.1,0,0,0,14-2.2,7.3,7.3,0,0,0-7-6Z"/><path class="a" d="M81.3,56.2a22.8,22.8,0,1,1-26.1-19A22.8,22.8,0,0,1,81.3,56.2Z"/><path class="d" d="M135.6,119.4a9.2,9.2,0,0,1-7.8,10.7,9.4,9.4,0,1,1,7.8-10.7Z"/><path class="d" d="M126.4,130.7a10,10,0,0,1-5.8-1.8,9.9,9.9,0,0,1-2.2-13.9,10.2,10.2,0,0,1,6.4-4,9.8,9.8,0,0,1,7.4,1.8,10.2,10.2,0,0,1,4,6.5,9.9,9.9,0,0,1-1.8,7.4,10.1,10.1,0,0,1-6.5,3.9Zm0-18.7H125a8.8,8.8,0,0,0-7.4,10.1,9.2,9.2,0,0,0,3.6,5.8,8.7,8.7,0,0,0,12.3-2,8.6,8.6,0,0,0,1.6-6.6,8.9,8.9,0,0,0-3.5-5.7A9.2,9.2,0,0,0,126.4,112Z"/><path class="d" d="M126.4,132.5a11.7,11.7,0,0,1-1.9-23.2,11.8,11.8,0,0,1,13.4,9.7,11.7,11.7,0,0,1-9.7,13.4Zm0-18.7h-1.1a7.2,7.2,0,0,0-5.9,8.1,7,7,0,0,0,8.1,5.9,7.1,7.1,0,0,0,5.9-8.1,7,7,0,0,0-2.9-4.6A6.7,6.7,0,0,0,126.4,113.8Z"/><path class="d" d="M126.4,133a12.2,12.2,0,1,1,7.2-22.1,12.5,12.5,0,0,1,4.8,8,12.2,12.2,0,0,1-10.1,14Zm0-23.3h-1.8a11.2,11.2,0,0,0,1.8,22.2l1.7-.2a11.2,11.2,0,0,0,9.3-12.7,11.3,11.3,0,0,0-4.5-7.3A11,11,0,0,0,126.4,109.7Zm0,18.7a8,8,0,0,1-4.5-1.4,7.7,7.7,0,0,1-3-5,7,7,0,0,1,1.3-5.6,7.5,7.5,0,0,1,5-3.1,7.7,7.7,0,0,1,5.7,1.4,7.6,7.6,0,0,1-3.3,13.6Zm0-14.1h-1a6.1,6.1,0,0,0-4.3,2.6,6.5,6.5,0,0,0,1.4,9.1,6.6,6.6,0,0,0,4.9,1.2,6.6,6.6,0,0,0,2.8-11.8A6.4,6.4,0,0,0,126.4,114.3Z"/><path class="b" d="M87,137.8a9.4,9.4,0,1,1-10.7-7.7A9.2,9.2,0,0,1,87,137.8Z"/><path class="b" d="M77.7,151a11.6,11.6,0,0,1-11.5-9.9,11.7,11.7,0,0,1,23.1-3.6h0a11.8,11.8,0,0,1-9.7,13.4Zm.1-18.8H76.7a7.1,7.1,0,0,0-5.9,8.1,7,7,0,0,0,2.8,4.6,6.7,6.7,0,0,0,5.3,1.3,7.1,7.1,0,0,0-1.1-14.1Z"/><path class="a" d="M119.3,63a9.4,9.4,0,1,1-18.5,2.9A9.4,9.4,0,0,1,119.3,63Z"/><path class="a" d="M110,76.1a11.7,11.7,0,0,1-11.5-9.8A11.7,11.7,0,0,1,116.9,55a11.6,11.6,0,0,1,4.7,7.6A11.7,11.7,0,0,1,111.9,76Zm0-18.8h-1.1a6.7,6.7,0,0,0-4.6,2.9,7,7,0,0,0-1.3,5.2,7.1,7.1,0,0,0,14-2.2,7,7,0,0,0-2.8-4.6A7.1,7.1,0,0,0,110,57.3Z"/><path class="d" d="M99,100.2a11.7,11.7,0,1,1-13.4-9.7A11.7,11.7,0,0,1,99,100.2Z"/><path class="d" d="M87.4,114.3A12.2,12.2,0,0,1,85.5,90a12.2,12.2,0,0,1,14,10.2,11.9,11.9,0,0,1-2.2,9.1,12.1,12.1,0,0,1-8,4.9Zm0-23.4H85.7a11.2,11.2,0,0,0,3.5,22.1,10.8,10.8,0,0,0,7.3-4.5,11.5,11.5,0,0,0,2-8.3A11.3,11.3,0,0,0,87.4,90.9Z"/><path class="d" d="M87.4,116.1a14.1,14.1,0,0,1-13.8-11.8A14,14,0,0,1,95.7,90.7a14.2,14.2,0,0,1,5.6,9.2,14,14,0,0,1-11.7,16Zm0-23.4H85.9a9.4,9.4,0,0,0-7.8,10.8,9.7,9.7,0,0,0,3.8,6.1,9.2,9.2,0,0,0,7,1.7,9.5,9.5,0,0,0,7.8-10.8A9.1,9.1,0,0,0,93,94.5,9.6,9.6,0,0,0,87.4,92.7Z"/><path class="d" d="M87.4,116.6A14.5,14.5,0,0,1,73,104.4a14.6,14.6,0,1,1,16.7,12.1Zm0-28a7.5,7.5,0,0,0-2.1.2,13.4,13.4,0,0,0-11.2,15.4,13.7,13.7,0,0,0,5.4,8.8,13.3,13.3,0,0,0,10,2.4A13.4,13.4,0,0,0,100.7,100a12.7,12.7,0,0,0-5.4-8.8A13.1,13.1,0,0,0,87.4,88.6Zm0,23.4a10,10,0,0,1-9.8-8.4,9.9,9.9,0,0,1,8.3-11.4A10.3,10.3,0,0,1,93.3,94a10.6,10.6,0,0,1,4,6.5,10.2,10.2,0,0,1-1.8,7.4,9.8,9.8,0,0,1-6.5,4Zm0-18.8H86a9,9,0,0,0-7.4,10.2,9.2,9.2,0,0,0,3.6,5.8,8.6,8.6,0,0,0,6.6,1.5,8.5,8.5,0,0,0,5.8-3.5,8.7,8.7,0,0,0,1.6-6.6,8.6,8.6,0,0,0-3.6-5.8A8.7,8.7,0,0,0,87.4,93.2Z"/><path class="d" d="M162.3,81.3a14.1,14.1,0,1,1-16.1-11.7A14,14,0,0,1,162.3,81.3Z"/><path class="d" d="M148.4,98.1A14.8,14.8,0,0,1,134,85.8a14.6,14.6,0,0,1,23-14.1,14.5,14.5,0,0,1,5.9,9.5h0a15,15,0,0,1-2.6,10.9,14.7,14.7,0,0,1-9.6,5.8Zm.1-28.1h-2.2a13.6,13.6,0,0,0-11.2,15.5,13.1,13.1,0,0,0,5.4,8.8,13.3,13.3,0,0,0,18.9-3,13.3,13.3,0,0,0,2.4-10h0a13.9,13.9,0,0,0-5.4-8.9A14.2,14.2,0,0,0,148.5,70Z"/><path class="d" d="M148.4,99.9a16.4,16.4,0,1,1,16.2-19h0A16.5,16.5,0,0,1,151,99.7Zm0-28.2-1.8.2a11.7,11.7,0,1,0,13.5,9.7A12,12,0,0,0,148.4,71.7Z"/><path class="d" d="M148.4,100.4a16.9,16.9,0,0,1-2.6-33.6,16.9,16.9,0,0,1,5.3,33.4Zm0-32.7a9.7,9.7,0,0,0-2.4.2,15.8,15.8,0,0,0,2.4,31.4,10.1,10.1,0,0,0,2.5-.2,15.8,15.8,0,0,0-2.5-31.4Zm0,28.1a12.8,12.8,0,0,1-7.2-2.3,12.6,12.6,0,0,1-4.9-8.1,12.3,12.3,0,0,1,10.2-14.1h1.9a12.4,12.4,0,0,1,12.2,10.4,12.2,12.2,0,0,1-10.2,14Zm0-23.5h-1.7a11.2,11.2,0,0,0-9.3,12.9,10.8,10.8,0,0,0,4.5,7.3,11.2,11.2,0,1,0,6.5-20.3Z"/></svg>