<svg xmlns="http://www.w3.org/2000/svg" viewBox="0 0 1080 1080"><defs><style>.a,.d,.e{fill:#fff;}.a,.b,.c{stroke:#02617f;stroke-width:30px;}.a,.b,.c,.d{stroke-miterlimit:10;}.b{fill:none;}.c,.f{fill:#51c89e;}.d{stroke:#51c89e;stroke-width:40px;}</style></defs><title>logo-global</title><path class="a" d="M983.3,644.1C934.6,846.6,752.4,997,535,997,280.4,997,74,790.6,74,536S280.4,75,535,75c218.2,0,401.1,151.7,448.8,355.3"/><polygon class="b" points="922.8 429.5 980.5 511.7 1038.2 429.5 922.8 429.5"/><polygon class="c" points="903 429.5 978.1 569 1053.2 429.5 903 429.5"/><circle class="d" cx="537.5" cy="532.5" r="320.5"/><circle class="e" cx="538" cy="536" r="325"/><path class="d" d="M537.5,212C714.5,212,858,355.5,858,532.5S714.5,853,537.5,853"/><path class="f" d="M557.5,861a326.6,326.6,0,0,0,74.5-8.6C488.4,818.7,381.5,689.9,381.5,536S488.4,253.3,632,219.6a326.6,326.6,0,0,0-74.5-8.6c-179.5,0-325,145.5-325,325S378,861,557.5,861Z"/><circle class="b" cx="538" cy="536" r="325"/></svg>